<svg version="1.1" id="sunrise-sunset" xmlns="http://www.w3.org/2000/svg" xmlns:xlink="http://www.w3.org/1999/xlink" x="0px" y="0px"
width="69px" height="32px" viewBox="0 0 69 32" enable-background="new 0 0 69 32" xml:space="preserve">
<path fill="#FFFFFF" d="M30.461,16.637c-8.37,0-15.155,6.797-15.155,15.182C15.305,40.203,22.091,47,30.461,47
c8.37,0,15.155-6.797,15.155-15.181C45.616,23.434,38.83,16.637,30.461,16.637z M37.471,25.856l-5.96,6.942
c-0.261,0.304-0.632,0.491-1.031,0.519c-0.035,0.002-0.071,0.004-0.106,0.004c-0.362,0-0.713-0.131-0.988-0.372l-4.873-4.271
c-0.624-0.546-0.687-1.496-0.141-2.12c0.544-0.625,1.493-0.688,2.117-0.141l3.734,3.273l4.974-5.793
c0.542-0.629,1.488-0.7,2.115-0.159C37.94,24.278,38.011,25.227,37.471,25.856z"/>
<path fill="#FFFFFF" d="M60.5,30.5h-9.606c-0.216-3-0.943-5.373-2.082-7.707l8.392-4.911c0.715-0.42,0.955-1.334,0.536-2.05
c-0.419-0.716-1.338-0.953-2.053-0.534l-8.4,4.931c-1.421-2.065-3.207-3.831-5.283-5.225l4.945-8.456
c0.418-0.716,0.179-1.636-0.536-2.056c-0.717-0.421-1.634-0.179-2.053,0.537l-4.967,8.493c-2.388-1.127-5.051-1.803-7.899-1.95
c0.001-0.018,0.005-0.035,0.005-0.053V1.503C31.5,0.673,30.829,0,30,0s-1.5,0.673-1.5,1.503V11.52c0,0.028,0.007,0.055,0.008,0.083
c-2.521,0.206-4.882,0.844-7.032,1.831l-4.915-8.405c-0.419-0.716-1.337-0.957-2.053-0.537c-0.715,0.42-0.955,1.34-0.536,2.056
l4.873,8.333c-2.117,1.389-3.94,3.164-5.391,5.243l-8.22-4.824c-0.716-0.42-1.634-0.179-2.053,0.537s-0.179,1.637,0.536,2.056
l8.202,4.787C10.748,25.045,9.997,27.5,9.777,30.5H1.5C0.671,30.5,0,31.17,0,32s0.671,1.5,1.5,1.5h9.71
c0.821,0,1.489-0.632,1.5-1.454c0.129-10.005,7.707-17.535,17.625-17.535c9.919,0,17.496,7.523,17.625,17.528
c0.011,0.822,0.679,1.461,1.5,1.461H60.5c0.829,0,1.5-0.67,1.5-1.5S61.329,30.5,60.5,30.5z"/>
</svg>
