<svg version="1.1" id="wunderground" xmlns="http://www.w3.org/2000/svg" xmlns:xlink="http://www.w3.org/1999/xlink" x="0px" y="0px"
width="69px" height="32px" viewBox="0 0 69 32" enable-background="new 0 0 69 32" xml:space="preserve">
<path fill="#FFFFFF" d="M32.463,28.327l-3.38-4.304c-0.085-0.106-0.242-0.124-0.354-0.035l-0.583,0.459
c-0.111,0.087-0.131,0.242-0.046,0.354l3.38,4.299c0.085,0.108,0.242,0.127,0.354,0.039l0.584-0.46
C32.527,28.594,32.549,28.434,32.463,28.327z"/>
<path fill="#FFFFFF" d="M35.189,24.023c-0.085-0.106-0.243-0.124-0.354-0.035l-0.583,0.459c-0.111,0.087-0.133,0.242-0.047,0.354
l3.38,4.299c0.086,0.108,0.242,0.127,0.355,0.039l0.583-0.46c0.11-0.085,0.132-0.245,0.048-0.352L35.189,24.023z"/>
<path fill="#FFFFFF" d="M41.493,23.988l-0.582,0.459c-0.112,0.087-0.135,0.242-0.048,0.354l3.381,4.299
c0.084,0.108,0.243,0.127,0.354,0.039l0.585-0.46c0.107-0.085,0.128-0.245,0.044-0.352l-3.38-4.304
C41.764,23.917,41.605,23.899,41.493,23.988z"/>
<path fill="#FFFFFF" d="M25.002,22.513c-1.568,2.811-2.464,6.039-2.464,9.471h1.264c0-3.462,0.973-6.698,2.662-9.471H25.002z"/>
<path fill="#FFFFFF" d="M42.555,13.522c10.331,0,18.737,8.292,18.737,18.487h1.264c0-10.892-8.976-19.752-20.001-19.752
c-1.459,0-2.878,0.159-4.247,0.451c0.645,0.333,1.568,0.65,2.892,0.867C41.648,13.543,42.101,13.522,42.555,13.522z"/>
<path fill="#FFFFFF" d="M23.921,22.511l-5.691-0.006c-1.185,2.938-1.836,6.138-1.836,9.492h5.167
C21.565,28.574,22.42,25.35,23.921,22.511z"/>
<path fill="#FFFFFF" d="M42.555,6.251c-3.307,0-6.466,0.605-9.378,1.707l4.139,4.056c1.675-0.423,3.432-0.649,5.239-0.649
c11.561,0,20.936,9.267,20.992,20.632h5.17C68.717,17.779,57.001,6.251,42.555,6.251z"/>
<path fill="#FFFFFF" d="M50.298,20.815c0-0.805-0.157-0.996-2.284-1.848c-2.063-0.826-2.429-1.405-2.895-2.357
c-0.067-0.135-0.139-0.277-0.22-0.43c-0.567-1.049-1.146-1.646-2.595-1.791c-1.247-0.125-2.237-0.333-3.024-0.58l0,0
c-0.299-0.096-0.57-0.195-0.815-0.299c-0.019-0.008-0.038-0.016-0.058-0.025c-0.064-0.029-0.13-0.058-0.19-0.087
c-0.025-0.01-0.047-0.021-0.072-0.033c-0.057-0.029-0.115-0.058-0.168-0.085c-0.023-0.012-0.043-0.022-0.065-0.035
c-0.056-0.029-0.109-0.059-0.161-0.087c-0.008-0.005-0.016-0.01-0.023-0.016c-0.122-0.07-0.233-0.141-0.334-0.209
c-0.209-0.146-0.38-0.288-0.52-0.423l-0.347-0.34L32.5,8.224l0,0l-7.233-7.089c-0.693-0.681-2.004-1.208-2.878-1.126
c-0.842,0.075-1.974,0.839-2.482,1.67c-0.111,0.244-1.145,2.487-2.325,4.028c-1.264,1.652-6.151,3.143-6.358,3.206
c-0.897,0.337-1.948,1.402-2.284,2.325c-0.064,0.259-0.721,2.823-1.892,4.395c-1.405,1.888-3.668,3.359-4.958,3.638
c-1.041,0.228-1.749,0.805-1.804,1.47c-0.022,0.271,0.109,0.475,0.223,0.601c0.279,0.304,0.762,0.485,1.292,0.486L25.9,21.85
l0.99,0.001l0,0l21.7,0.021C49.104,21.871,50.298,21.768,50.298,20.815z"/>
</svg>
